<svg id="Capa_1" enable-background="new 0 0 512 512" height="512" viewBox="0 0 512 512" width="512" xmlns="http://www.w3.org/2000/svg"><g><path d="m146.037 174.341v-14.236h6.254c11.145 0 17.283-5.799 17.283-16.327v-.341c0-10.441-5.895-16.191-16.601-16.191h-14.122c-2.541 0-4.457 1.594-4.457 3.707v43.389c0 2.593 3.018 3.775 5.821 3.775 2.805-.001 5.822-1.183 5.822-3.776zm11.895-29.745c0 4.195-1.898 6.322-5.641 6.322h-6.254v-13.395h6.254c3.743 0 5.641 2.127 5.641 6.322z"/><path d="m220.677 142.345c0-10.019-5.815-15.1-17.283-15.1h-14.122c-2.152 0-3.774 1.594-3.774 3.707v43.389c0 2.593 3.018 3.775 5.821 3.775 2.804 0 5.821-1.181 5.821-3.775v-15.941h3.698l9.209 17.879c.758 1.449 2.127 2.247 3.854 2.247 3.492 0 7.186-3.098 7.186-6.026 0-.324-.055-.95-.403-1.47l-8.052-14.585c5.194-2.249 8.045-7.231 8.045-14.1zm-11.643 1.023c0 4.097-1.687 5.845-5.641 5.845h-6.254v-11.689h6.254c3.954 0 5.641 1.747 5.641 5.844z"/><path d="m267.051 137.524c2.182 0 3.706-2.141 3.706-5.207 0-2.442-1.16-5.071-3.706-5.071h-24.287c-2.476 0-5.14 1.181-5.14 3.775v43.321c0 2.593 2.664 3.775 5.14 3.775h24.287c2.546 0 3.706-2.629 3.706-5.071 0-3.066-1.524-5.208-3.706-5.208h-17.784v-10.598h9.733c2.434 0 3.707-2.276 3.707-4.525 0-2.316-1.273-4.661-3.707-4.661h-9.733v-10.53z"/><path d="m301.029 168.247c-3.539 0-5.646-1.623-7.505-3.054-1.39-1.07-2.59-1.994-4.092-1.994-2.981 0-5.14 3.722-5.14 6.231 0 4.991 7.917 9.369 16.941 9.369 10.829 0 17.556-5.995 17.556-15.645 0-10.873-8.514-14.627-14.73-17.367-3.853-1.698-6.896-3.04-6.896-5.35 0-1.737 1.661-3.594 6.322-3.594 3.243 0 4.986.903 6.386 1.629.997.517 1.859.963 2.96.963 3.343 0 4.73-3.969 4.73-6.094 0-6.19-11.726-6.504-14.076-6.504-8.287 0-17.965 3.829-17.965 14.622 0 9.605 7.612 13.142 13.729 15.983 4.237 1.968 7.897 3.669 7.897 6.803 0 2.953-3.295 4.002-6.117 4.002z"/><path d="m349.676 168.247c-3.539 0-5.646-1.623-7.505-3.054-1.39-1.07-2.59-1.994-4.092-1.994-2.981 0-5.14 3.722-5.14 6.231 0 4.991 7.917 9.369 16.941 9.369 10.829 0 17.556-5.995 17.556-15.645 0-10.873-8.514-14.627-14.73-17.367-3.853-1.698-6.895-3.04-6.895-5.35 0-1.737 1.661-3.594 6.322-3.594 3.243 0 4.986.903 6.386 1.629.997.517 1.859.963 2.959.963 3.343 0 4.731-3.969 4.731-6.094 0-6.19-11.726-6.504-14.076-6.504-8.287 0-17.965 3.829-17.965 14.622 0 9.605 7.612 13.142 13.729 15.983 4.237 1.968 7.897 3.669 7.897 6.803-.001 2.953-3.296 4.002-6.118 4.002z"/><path d="m148.744 237.16c-3.538 0-5.646-1.623-7.505-3.054-1.39-1.07-2.59-1.994-4.092-1.994-2.982 0-5.14 3.722-5.14 6.23 0 4.991 7.917 9.369 16.941 9.369 10.829 0 17.556-5.995 17.556-15.645 0-10.874-8.514-14.627-14.73-17.368-3.852-1.698-6.895-3.04-6.895-5.35 0-1.737 1.661-3.594 6.322-3.594 3.243 0 4.986.903 6.386 1.629.998.517 1.859.963 2.96.963 3.343 0 4.73-3.969 4.73-6.094 0-6.19-11.726-6.503-14.076-6.503-8.287 0-17.965 3.829-17.965 14.622 0 9.605 7.612 13.142 13.729 15.984 4.237 1.968 7.897 3.669 7.897 6.802-.001 2.955-3.296 4.003-6.118 4.003z"/><path d="m179.903 201.366c0 3.146 1.524 5.344 3.706 5.344h8.915v36.545c0 2.594 3.018 3.775 5.821 3.775 2.804 0 5.821-1.181 5.821-3.775v-36.545h8.914c2.183 0 3.707-2.197 3.707-5.344 0-2.592-1.146-5.207-3.707-5.207h-29.472c-2.559 0-3.705 2.615-3.705 5.207z"/><path d="m224.745 241.291c-.075.298-.152.606-.152.872 0 2.971 4.337 4.866 7.322 4.866 2.721 0 3.655-1.273 3.962-2.347l2.219-8.159h13.63l2.222 8.165c.305 1.068 1.24 2.341 3.96 2.341 2.985 0 7.321-1.896 7.321-4.866 0-.27-.077-.576-.158-.897l-12.759-41.619c-.744-2.368-3.663-3.897-7.436-3.897s-6.691 1.53-7.436 3.902zm15.807-13.955 4.325-15.881 4.326 15.881z"/><path d="m280.472 199.865v43.389c0 2.594 3.018 3.775 5.821 3.775 2.804 0 5.821-1.181 5.821-3.775v-15.941h3.697l9.208 17.879c.759 1.449 2.128 2.246 3.854 2.246 3.492 0 7.186-3.098 7.186-6.026 0-.324-.055-.95-.403-1.47l-8.052-14.585c5.195-2.248 8.046-7.23 8.046-14.099 0-10.019-5.814-15.1-17.282-15.1h-14.122c-2.152.001-3.774 1.594-3.774 3.707zm17.896 6.572c3.953 0 5.64 1.748 5.64 5.844 0 4.097-1.686 5.845-5.64 5.845h-6.254v-11.689z"/><path d="m328.915 201.366c0 3.146 1.524 5.344 3.706 5.344h8.915v36.545c0 2.594 3.018 3.775 5.821 3.775s5.821-1.181 5.821-3.775v-36.545h8.914c2.183 0 3.707-2.197 3.707-5.344 0-2.592-1.147-5.207-3.707-5.207h-29.472c-2.559 0-3.705 2.615-3.705 5.207z"/><path d="m69.873 317.414v33.017c0 9.464 7.699 17.163 17.163 17.163h337.927c9.464 0 17.163-7.699 17.163-17.163v-33.017c0-9.464-7.699-17.163-17.163-17.163h-337.926c-9.464 0-17.164 7.699-17.164 17.163zm357.253 0v33.017c0 1.193-.97 2.163-2.163 2.163h-337.926c-1.193 0-2.163-.97-2.163-2.163v-33.017c0-1.193.97-2.163 2.163-2.163h337.927c1.192 0 2.162.97 2.162 2.163z"/><path d="m271.299 448h-247.283c-4.972 0-9.016-4.045-9.016-9.016v-365.968c0-4.971 4.044-9.016 9.016-9.016h74.595c4.142 0 7.5-3.358 7.5-7.5s-3.358-7.5-7.5-7.5h-74.595c-13.243 0-24.016 10.774-24.016 24.016v365.967c0 13.243 10.773 24.017 24.016 24.017h247.283c4.142 0 7.5-3.358 7.5-7.5s-3.358-7.5-7.5-7.5z"/><path d="m487.984 49h-359.373c-4.142 0-7.5 3.358-7.5 7.5s3.358 7.5 7.5 7.5h359.373c4.972 0 9.016 4.045 9.016 9.016v365.967c0 4.972-4.044 9.016-9.016 9.016h-186.685c-4.142 0-7.5 3.358-7.5 7.5s3.358 7.5 7.5 7.5h186.685c13.243.001 24.016-10.773 24.016-24.015v-365.968c0-13.242-10.773-24.016-24.016-24.016z"/></g></svg>